<svg width="242.189697" height="32.494034" viewBox="0 0 242.19 32.494" fill="none" xmlns="http://www.w3.org/2000/svg" xmlns:xlink="http://www.w3.org/1999/xlink">
    <desc>
    </desc>
    <defs/>
    <g style="mix-blend-mode:normal">
        <path id="路径 1" d="M0.28 18.91L0.28 6.28L0.11 6.11C-0.16 5.77 0.08 5.26 0.51 5.26L5.82 5.26C5.99 5.26 6.16 5.33 6.22 5.47L6.76 6.18C6.86 6.31 6.9 6.45 6.9 6.58L6.9 18.6C6.9 24.08 9.26 25.76 13.32 25.76C17.37 25.76 19.73 24.04 19.73 18.6L19.73 6.41L19.46 6.04C19.23 5.74 19.46 5.3 19.83 5.3L25.2 5.3C25.37 5.3 25.51 5.37 25.58 5.5L26.12 6.24C26.22 6.38 26.25 6.51 26.25 6.65L26.25 18.91C26.25 27.35 21.42 32.05 13.25 32.05C5.11 32.01 0.28 27.35 0.28 18.91Z" fill="#FFFFFF" fill-opacity="1.000000" fill-rule="nonzero"/>
        <path id="路径 1" d="M0.28 6.28L0.11 6.11C-0.16 5.77 0.08 5.26 0.51 5.26L5.82 5.26C5.99 5.26 6.16 5.33 6.22 5.47L6.76 6.18C6.86 6.31 6.9 6.45 6.9 6.58L6.9 18.6C6.9 24.08 9.26 25.76 13.32 25.76C17.37 25.76 19.73 24.04 19.73 18.6L19.73 6.41L19.46 6.04C19.23 5.74 19.46 5.3 19.83 5.3L25.2 5.3C25.37 5.3 25.51 5.37 25.58 5.5L26.12 6.24C26.22 6.38 26.25 6.51 26.25 6.65L26.25 18.91C26.25 27.35 21.42 32.05 13.25 32.05C5.11 32.01 0.28 27.35 0.28 18.91L0.28 6.28Z" stroke="#707070" stroke-opacity="0" stroke-width="1.000000"/>
    </g>
    <g style="mix-blend-mode:normal">
        <path id="路径 2" d="M49.69 21.85L49.42 21.61C49.15 21.37 49.25 20.93 49.59 20.87L54.32 19.96C54.42 19.92 54.52 19.96 54.62 20.02L55.03 20.33C55.23 20.46 55.36 20.7 55.43 20.97C56.48 25.83 58.88 27.49 62.22 26.85C65.7 26.17 67.29 23.67 66.31 18.5L66.2 18.44C65.93 18.23 66 17.79 66.31 17.73L70.9 16.85C71 16.81 71.1 16.85 71.2 16.95L71.71 17.46C71.88 17.59 71.98 17.79 72.01 18.03C73.36 25.83 70.09 30.93 63.16 32.25C56.21 33.5 51.21 29.85 49.69 21.85Z" fill="#FFFFFF" fill-opacity="1.000000" fill-rule="nonzero"/>
        <path id="路径 2" d="M49.42 21.61C49.15 21.37 49.25 20.93 49.59 20.87L54.32 19.96C54.42 19.92 54.52 19.96 54.62 20.02L55.03 20.33C55.23 20.46 55.36 20.7 55.43 20.97C56.48 25.83 58.88 27.49 62.22 26.85C65.7 26.17 67.29 23.67 66.31 18.5L66.2 18.44C65.93 18.23 66 17.79 66.31 17.73L70.9 16.85C71 16.81 71.1 16.85 71.2 16.95L71.71 17.46C71.88 17.59 71.98 17.79 72.01 18.03C73.36 25.83 70.09 30.93 63.16 32.25C56.21 33.5 51.21 29.85 49.69 21.85L49.42 21.61Z" stroke="#707070" stroke-opacity="0" stroke-width="1.000000"/>
    </g>
    <g style="mix-blend-mode:normal">
        <path id="路径 3" d="M45.7 5.64C45.67 5.7 45.57 5.74 45.47 5.74C45.33 5.7 45.16 5.64 44.99 5.57C44.62 5.43 44.22 5.26 43.98 5.26C42.09 5.26 41.08 6.28 41.08 8.47L41.08 9.22C41.08 9.32 41.14 9.42 41.28 9.42L46.58 9.42C46.68 9.42 46.78 9.49 46.78 9.62L46.78 15.53C46.78 15.63 46.72 15.73 46.58 15.73L41.45 15.73C41.35 15.73 41.25 15.8 41.25 15.94L41.25 30.86C41.25 30.97 41.18 31.07 41.04 31.07L35.03 31.07C34.93 31.07 34.83 31 34.83 30.86L34.83 15.87C34.83 15.77 34.76 15.67 34.63 15.67L32.53 15.67C32.46 15.67 31.59 15.67 31.59 15.67C31.42 15.63 31.42 15.6 31.42 15.5L31.42 9.59C31.42 9.49 31.49 9.38 31.62 9.38L32.36 9.38L34.66 9.38C34.76 9.38 34.86 9.32 34.86 9.18L34.86 8.37C34.86 3.41 38.24 0 43.75 0C45.1 0 46.31 0.3 47.33 0.81C47.53 0.91 47.8 0.87 48.03 0.84C48.2 0.81 48.3 0.97 48.24 1.11L45.7 5.64Z" fill="#FFFFFF" fill-opacity="1.000000" fill-rule="nonzero"/>
        <path id="路径 3" d="M45.47 5.74C45.33 5.7 45.16 5.64 44.99 5.57C44.62 5.43 44.22 5.26 43.98 5.26C42.09 5.26 41.08 6.28 41.08 8.47L41.08 9.22C41.08 9.32 41.14 9.42 41.28 9.42L46.58 9.42C46.68 9.42 46.78 9.49 46.78 9.62L46.78 15.53C46.78 15.63 46.72 15.73 46.58 15.73L41.45 15.73C41.35 15.73 41.25 15.8 41.25 15.94L41.25 30.86C41.25 30.97 41.18 31.07 41.04 31.07L35.03 31.07C34.93 31.07 34.83 31 34.83 30.86L34.83 15.87C34.83 15.77 34.76 15.67 34.63 15.67L32.53 15.67C32.46 15.67 31.59 15.67 31.59 15.67C31.42 15.63 31.42 15.6 31.42 15.5L31.42 9.59C31.42 9.49 31.49 9.38 31.62 9.38L32.36 9.38L34.66 9.38C34.76 9.38 34.86 9.32 34.86 9.18L34.86 8.37C34.86 3.41 38.24 0 43.75 0C45.1 0 46.31 0.3 47.33 0.81C47.53 0.91 47.8 0.87 48.03 0.84C48.2 0.81 48.3 0.97 48.24 1.11L45.7 5.64C45.67 5.7 45.57 5.74 45.47 5.74Z" stroke="#707070" stroke-opacity="0" stroke-width="1.000000"/>
    </g>
    <g style="mix-blend-mode:normal">
        <path id="路径 4" d="M99.07 18.64L99.07 31.2L92.75 31.27L92.68 19.62C92.68 16.04 91.03 14.42 88.22 14.42C85.15 14.42 82.92 16.31 82.92 20.36L82.92 31.2L76.61 31.27L76.54 10.16L76.3 9.72C76.17 9.49 76.34 9.18 76.61 9.18L81.64 9.18C81.94 9.18 82.21 9.35 82.35 9.59L82.58 9.99C82.65 10.09 82.69 10.19 82.69 10.3L82.69 11.28C82.69 11.34 82.79 11.38 82.82 11.34C84.54 9.55 87.08 8.84 89.98 8.84C95.11 8.84 99.07 11.88 99.07 18.64Z" fill="#FFFFFF" fill-opacity="1.000000" fill-rule="nonzero"/>
        <path id="路径 4" d="M99.07 31.2L92.75 31.27L92.68 19.62C92.68 16.04 91.03 14.42 88.22 14.42C85.15 14.42 82.92 16.31 82.92 20.36L82.92 31.2L76.61 31.27L76.54 10.16L76.3 9.72C76.17 9.49 76.34 9.18 76.61 9.18L81.64 9.18C81.94 9.18 82.21 9.35 82.35 9.59L82.58 9.99C82.65 10.09 82.69 10.19 82.69 10.3L82.69 11.28C82.69 11.34 82.79 11.38 82.82 11.34C84.54 9.55 87.08 8.84 89.98 8.84C95.11 8.84 99.07 11.88 99.07 18.64L99.07 31.2Z" stroke="#707070" stroke-opacity="0" stroke-width="1.000000"/>
    </g>
    <g style="mix-blend-mode:normal">
        <circle id="椭圆 1" cx="54.388794" cy="12.631308" r="3.546224" fill="#FFC200" fill-opacity="1.000000"/>
        <circle id="椭圆 1" cx="54.388794" cy="12.631308" r="3.546224" stroke="#707070" stroke-opacity="0" stroke-width="1.000000"/>
    </g>
    <g style="mix-blend-mode:normal">
        <circle id="椭圆 2" cx="68.067139" cy="9.625465" r="3.546224" fill="#F2063F" fill-opacity="1.000000"/>
        <circle id="椭圆 2" cx="68.067139" cy="9.625465" r="3.546224" stroke="#707070" stroke-opacity="0" stroke-width="1.000000"/>
    </g>
    <g style="mix-blend-mode:normal">
        <path id="路径 5" d="M121.26 9.86C120.88 10.7 120.48 11.48 120.04 12.29L133.41 12.29C133.89 12.29 134.29 12.66 134.29 13.17L134.29 27.52C134.29 29.34 133.95 30.32 132.71 30.86C131.59 31.4 130 31.47 127.81 31.47C127.5 31.47 127.23 31.24 127.2 30.93C127.13 30.09 127.1 29.07 126.9 28.3C126.86 28.13 127 27.96 127.17 27.99C128.55 28.06 129.56 28.03 130.04 28.03C130.58 27.99 130.75 27.86 130.75 27.42L130.75 25.56L119.63 25.56L119.63 31.17C119.63 31.3 119.5 31.44 119.36 31.44L116.09 31.4C115.95 31.4 115.85 31.27 115.89 31.13L115.99 30.73L115.99 18.06C114.81 19.38 112.44 21.78 110.92 22.86C110.85 22.93 110.72 22.89 110.65 22.83C110.14 22.08 109.16 21 108.49 20.33C108.42 20.26 108.42 20.12 108.52 20.06C111.73 17.83 115.35 13.37 117.17 9.86L110.72 9.86C110.55 9.86 110.45 9.72 110.45 9.59L110.41 6.55C110.41 6.38 110.58 6.24 110.75 6.28L111.39 6.34L118.72 6.41C119.13 5.37 119.47 4.59 119.74 3.54C119.77 3.44 119.63 3.14 119.53 2.87C119.47 2.66 119.63 2.46 119.84 2.53L123.72 3.58C123.42 4.52 123.11 5.5 122.74 6.45L134.77 6.45C135.34 6.45 135.91 6.38 136.45 6.28C136.66 6.24 136.79 6.38 136.79 6.55L136.79 9.59C136.79 9.76 136.66 9.89 136.49 9.89L121.26 9.86ZM130.71 15.5L119.6 15.5L119.6 17.46L130.71 17.46L130.71 15.5ZM130.71 22.52L130.71 20.53L119.6 20.53L119.6 22.52L130.71 22.52Z" fill="#FFFFFF" fill-opacity="1.000000" fill-rule="nonzero"/>
        <path id="路径 5" d="M120.04 12.29L133.41 12.29C133.89 12.29 134.29 12.66 134.29 13.17L134.29 27.52C134.29 29.34 133.95 30.32 132.71 30.86C131.59 31.4 130 31.47 127.81 31.47C127.5 31.47 127.23 31.24 127.2 30.93C127.13 30.09 127.1 29.07 126.9 28.3C126.86 28.13 127 27.96 127.17 27.99C128.55 28.06 129.56 28.03 130.04 28.03C130.58 27.99 130.75 27.86 130.75 27.42L130.75 25.56L119.63 25.56L119.63 31.17C119.63 31.3 119.5 31.44 119.36 31.44L116.09 31.4C115.95 31.4 115.85 31.27 115.89 31.13L115.99 30.73L115.99 18.06C114.81 19.38 112.44 21.78 110.92 22.86C110.85 22.93 110.72 22.89 110.65 22.83C110.14 22.08 109.16 21 108.49 20.33C108.42 20.26 108.42 20.12 108.52 20.06C111.73 17.83 115.35 13.37 117.17 9.86L110.72 9.86C110.55 9.86 110.45 9.72 110.45 9.59L110.41 6.55C110.41 6.38 110.58 6.24 110.75 6.28L111.39 6.34L118.72 6.41C119.13 5.37 119.47 4.59 119.74 3.54C119.77 3.44 119.63 3.14 119.53 2.87C119.47 2.66 119.63 2.46 119.84 2.53L123.72 3.58C123.42 4.52 123.11 5.5 122.74 6.45L134.77 6.45C135.34 6.45 135.91 6.38 136.45 6.28C136.66 6.24 136.79 6.38 136.79 6.55L136.79 9.59C136.79 9.76 136.66 9.89 136.49 9.89L121.26 9.86C120.88 10.7 120.48 11.48 120.04 12.29ZM119.6 15.5L119.6 17.46L130.71 17.46L130.71 15.5L119.6 15.5ZM130.71 20.53L119.6 20.53L119.6 22.52L130.71 22.52L130.71 20.53Z" stroke="#707070" stroke-opacity="0" stroke-width="1.000000"/>
    </g>
    <g style="mix-blend-mode:normal">
        <path id="路径 6" d="M149.59 23.1C148.41 22.25 146.35 21.07 144.73 20.16C144.53 20.02 144.46 19.75 144.63 19.58L146.15 17.76C146.25 17.62 146.45 17.59 146.62 17.66C148.21 18.44 150.37 19.58 151.69 20.39C151.82 20.5 151.85 20.66 151.75 20.8L150 23.1C149.89 23.16 149.73 23.16 149.59 23.1Z" fill="#FFFFFF" fill-opacity="1.000000" fill-rule="nonzero"/>
        <path id="路径 6" d="M144.73 20.16C144.53 20.02 144.46 19.75 144.63 19.58L146.15 17.76C146.25 17.62 146.45 17.59 146.62 17.66C148.21 18.44 150.37 19.58 151.69 20.39C151.82 20.5 151.85 20.66 151.75 20.8L150 23.1C149.89 23.16 149.73 23.16 149.59 23.1C148.41 22.25 146.35 21.07 144.73 20.16Z" stroke="#707070" stroke-opacity="0" stroke-width="1.000000"/>
    </g>
    <g style="mix-blend-mode:normal">
        <path id="路径 7" d="M150.27 9.18L144.32 9.18C144.12 9.18 143.99 9.01 143.99 8.81L144.02 5.87C144.02 5.77 144.12 5.7 144.22 5.7L144.8 5.77L150.3 5.77L150.3 4.12L150.2 3.54C150.17 3.37 150.3 3.2 150.47 3.2L153.81 3.51C153.98 3.51 154.12 3.64 154.12 3.81L154.12 5.74L161.62 5.74L161.62 4.18L161.45 3.74C161.41 3.58 161.55 3.41 161.72 3.41L162.19 3.41L164.96 3.58C165.16 3.58 165.3 3.74 165.3 3.95L165.3 5.8L171.24 5.8C171.44 5.8 171.61 5.97 171.61 6.18L171.61 8.81C171.61 9.01 171.44 9.18 171.24 9.18L165.3 9.18L165.3 11.28C165.3 11.48 165.13 11.65 164.93 11.65L161.85 11.65C161.65 11.65 161.48 11.48 161.48 11.28L161.48 9.18L153.98 9.18L153.98 11.28C153.98 11.48 153.81 11.65 153.61 11.65L150.54 11.65C150.33 11.65 150.17 11.48 150.17 11.28L150.17 9.18L150.27 9.18Z" fill="#FFFFFF" fill-opacity="1.000000" fill-rule="nonzero"/>
        <path id="路径 7" d="M144.32 9.18C144.12 9.18 143.99 9.01 143.99 8.81L144.02 5.87C144.02 5.77 144.12 5.7 144.22 5.7L144.8 5.77L150.3 5.77L150.3 4.12L150.2 3.54C150.17 3.37 150.3 3.2 150.47 3.2L153.81 3.51C153.98 3.51 154.12 3.64 154.12 3.81L154.12 5.74L161.62 5.74L161.62 4.18L161.45 3.74C161.41 3.58 161.55 3.41 161.72 3.41L162.19 3.41L164.96 3.58C165.16 3.58 165.3 3.74 165.3 3.95L165.3 5.8L171.24 5.8C171.44 5.8 171.61 5.97 171.61 6.18L171.61 8.81C171.61 9.01 171.44 9.18 171.24 9.18L165.3 9.18L165.3 11.28C165.3 11.48 165.13 11.65 164.93 11.65L161.85 11.65C161.65 11.65 161.48 11.48 161.48 11.28L161.48 9.18L153.98 9.18L153.98 11.28C153.98 11.48 153.81 11.65 153.61 11.65L150.54 11.65C150.33 11.65 150.17 11.48 150.17 11.28L150.17 9.18L150.27 9.18L144.32 9.18Z" stroke="#707070" stroke-opacity="0" stroke-width="1.000000"/>
    </g>
    <g style="mix-blend-mode:normal">
        <path id="路径 8" d="M144.46 28.6C146.79 27.22 148.85 25.93 151.18 23.37C151.31 23.23 151.55 23.23 151.65 23.4L153.34 25.7C153.41 25.8 153.41 25.97 153.34 26.07C151.31 28.5 149.56 29.75 146.96 31.61C146.82 31.71 146.62 31.71 146.48 31.57L144.39 29.11C144.25 28.94 144.29 28.7 144.46 28.6Z" fill="#FFFFFF" fill-opacity="1.000000" fill-rule="nonzero"/>
        <path id="路径 8" d="M151.18 23.37C151.31 23.23 151.55 23.23 151.65 23.4L153.34 25.7C153.41 25.8 153.41 25.97 153.34 26.07C151.31 28.5 149.56 29.75 146.96 31.61C146.82 31.71 146.62 31.71 146.48 31.57L144.39 29.11C144.25 28.94 144.29 28.7 144.46 28.6C146.79 27.22 148.85 25.93 151.18 23.37Z" stroke="#707070" stroke-opacity="0" stroke-width="1.000000"/>
    </g>
    <g style="mix-blend-mode:normal">
        <path id="路径 9" d="M147.09 11.75C148.65 12.59 150.81 13.81 152.09 14.59C152.23 14.69 152.26 14.86 152.16 14.99L150.37 17.25C150.27 17.35 150.13 17.39 150 17.32C148.82 16.51 146.72 15.19 145.13 14.25C144.93 14.11 144.86 13.84 145.03 13.64L146.59 11.85C146.72 11.71 146.92 11.68 147.09 11.75Z" fill="#FFFFFF" fill-opacity="1.000000" fill-rule="nonzero"/>
        <path id="路径 9" d="M152.09 14.59C152.23 14.69 152.26 14.86 152.16 14.99L150.37 17.25C150.27 17.35 150.13 17.39 150 17.32C148.82 16.51 146.72 15.19 145.13 14.25C144.93 14.11 144.86 13.84 145.03 13.64L146.59 11.85C146.72 11.71 146.92 11.68 147.09 11.75C148.65 12.59 150.81 13.81 152.09 14.59Z" stroke="#707070" stroke-opacity="0" stroke-width="1.000000"/>
    </g>
    <g style="mix-blend-mode:normal">
        <path id="路径 10" d="M164.49 27.99C166.14 27.99 167.49 27.45 167.69 24.31C168.57 24.89 170.13 25.53 171.21 25.76C170.67 30.15 168.07 31.44 164.32 31.44L160.37 31.44C156.62 31.57 154.46 28.64 154.46 24.55L154.49 14.38C154.49 13.94 154.86 13.57 155.3 13.57L168.2 13.57C168.64 13.57 169.01 13.94 169.01 14.38L169.01 20.26C169.01 21.98 168.61 22.96 167.29 23.54C166.01 24.08 164.22 24.11 161.85 24.11C161.72 23.27 161.28 22.18 160.84 21.31C160.7 21.04 160.91 20.7 161.21 20.7C162.66 20.73 164.15 20.73 164.59 20.7C165.13 20.7 165.3 20.6 165.3 20.19L165.3 17.05L158.34 17.05L158.41 24.04C158.41 25.6 159.45 27.99 161.35 27.99L164.49 27.99Z" fill="#FFFFFF" fill-opacity="1.000000" fill-rule="nonzero"/>
        <path id="路径 10" d="M167.69 24.31C168.57 24.89 170.13 25.53 171.21 25.76C170.67 30.15 168.07 31.44 164.32 31.44L160.37 31.44C156.62 31.57 154.46 28.64 154.46 24.55L154.49 14.38C154.49 13.94 154.86 13.57 155.3 13.57L168.2 13.57C168.64 13.57 169.01 13.94 169.01 14.38L169.01 20.26C169.01 21.98 168.61 22.96 167.29 23.54C166.01 24.08 164.22 24.11 161.85 24.11C161.72 23.27 161.28 22.18 160.84 21.31C160.7 21.04 160.91 20.7 161.21 20.7C162.66 20.73 164.15 20.73 164.59 20.7C165.13 20.7 165.3 20.6 165.3 20.19L165.3 17.05L158.34 17.05L158.41 24.04C158.41 25.6 159.45 27.99 161.35 27.99L164.49 27.99C166.14 27.99 167.49 27.45 167.69 24.31Z" stroke="#707070" stroke-opacity="0" stroke-width="1.000000"/>
    </g>
    <g style="mix-blend-mode:normal">
        <path id="路径 11" d="M183.26 31C183.26 31.4 182.93 31.74 182.52 31.74L179.99 31.74C179.68 31.74 179.45 31.47 179.52 31.17L179.62 29.01L179.62 5.26C179.62 4.96 179.85 4.76 180.12 4.76L204.58 4.76C205.15 4.76 205.62 5.23 205.62 5.8L205.62 27.42C205.62 29.48 205.15 30.49 203.8 31.1C202.52 31.71 200.59 31.81 197.75 31.78C197.65 31.78 197.58 31.71 197.58 31.64C197.38 30.73 196.91 29.34 196.4 28.4C196.33 28.26 196.44 28.13 196.57 28.13C198.43 28.26 200.45 28.23 201.03 28.23C201.67 28.2 201.91 27.99 201.91 27.39L201.91 9.15C201.91 8.67 201.54 8.27 201.03 8.27L184.07 8.27C183.6 8.27 183.2 8.64 183.2 9.15L183.26 31Z" fill="#FFFFFF" fill-opacity="1.000000" fill-rule="nonzero"/>
        <path id="路径 11" d="M182.52 31.74L179.99 31.74C179.68 31.74 179.45 31.47 179.52 31.17L179.62 29.01L179.62 5.26C179.62 4.96 179.85 4.76 180.12 4.76L204.58 4.76C205.15 4.76 205.62 5.23 205.62 5.8L205.62 27.42C205.62 29.48 205.15 30.49 203.8 31.1C202.52 31.71 200.59 31.81 197.75 31.78C197.65 31.78 197.58 31.71 197.58 31.64C197.38 30.73 196.91 29.34 196.4 28.4C196.33 28.26 196.44 28.13 196.57 28.13C198.43 28.26 200.45 28.23 201.03 28.23C201.67 28.2 201.91 27.99 201.91 27.39L201.91 9.15C201.91 8.67 201.54 8.27 201.03 8.27L184.07 8.27C183.6 8.27 183.2 8.64 183.2 9.15L183.26 31C183.26 31.4 182.93 31.74 182.52 31.74Z" stroke="#707070" stroke-opacity="0" stroke-width="1.000000"/>
    </g>
    <g style="mix-blend-mode:normal">
        <rect id="矩形 2" x="182.459229" y="15.979111" width="11.685652" height="3.073394" transform="rotate(21.629 182.459229 15.979111)" fill="#FFC200" fill-opacity="1.000000"/>
        <rect id="矩形 2" x="182.459229" y="15.979111" width="11.685652" height="3.073394" transform="rotate(21.629 182.459229 15.979111)" stroke="#707070" stroke-opacity="0" stroke-width="1.000000"/>
    </g>
    <g style="mix-blend-mode:normal">
        <rect id="矩形 3" x="190.917847" y="14.688446" width="11.685652" height="3.073394" transform="rotate(111.629 190.917847 14.688446)" fill="#FFC200" fill-opacity="1.000000"/>
        <rect id="矩形 3" x="190.917847" y="14.688446" width="11.685652" height="3.073394" transform="rotate(111.629 190.917847 14.688446)" stroke="#707070" stroke-opacity="0" stroke-width="1.000000"/>
    </g>
    <g style="mix-blend-mode:normal">
        <rect id="矩形 4" x="192.697144" y="11.525909" width="11.685652" height="3.073394" transform="rotate(21.629 192.697144 11.525909)" fill="#F2063F" fill-opacity="1.000000"/>
        <rect id="矩形 4" x="192.697144" y="11.525909" width="11.685652" height="3.073394" transform="rotate(21.629 192.697144 11.525909)" stroke="#707070" stroke-opacity="0" stroke-width="1.000000"/>
    </g>
    <g style="mix-blend-mode:normal">
        <rect id="矩形 5" x="201.148438" y="10.260590" width="11.685652" height="3.073394" transform="rotate(111.629 201.148438 10.260590)" fill="#F2063F" fill-opacity="1.000000"/>
        <rect id="矩形 5" x="201.148438" y="10.260590" width="11.685652" height="3.073394" transform="rotate(111.629 201.148438 10.260590)" stroke="#707070" stroke-opacity="0" stroke-width="1.000000"/>
    </g>
    <g style="mix-blend-mode:normal">
        <path id="路径 12" d="M241.05 7.09C239.83 9.89 238.04 12.29 235.88 14.28C237.67 15.33 239.7 16.07 241.9 16.61C242.13 16.68 242.27 16.92 242.13 17.15C241.76 17.93 241.42 19.01 241.22 19.82C241.15 20.02 240.95 20.16 240.75 20.09C240.51 20.02 240.27 19.92 240 19.85L240 30.97L236.49 30.97L236.49 30.19L229.6 30.19L229.6 30.97L226.29 30.97L226.29 19.92C225.58 20.19 224.81 19.82 224.57 19.11C224.43 18.74 224.3 18.33 224.13 18C224.06 18.54 224.06 19.14 224.1 19.69C224.13 20.33 223.69 20.87 223.08 21C217.51 22.29 215.86 22.76 215.01 23.2C214.81 23.3 214.61 23.2 214.54 22.99C214.3 22.25 213.9 21.07 213.59 20.29C213.53 20.16 213.56 19.99 213.69 19.89C214.47 19.21 215.08 18.67 215.99 17.66C216.43 17.22 217.92 15.26 218.93 13.88C217.41 14.82 214.94 15.6 214.17 15.83C214.03 15.87 213.9 15.8 213.86 15.67C213.63 14.86 213.12 13.34 212.71 12.49C213.22 11.75 214.84 9.79 215.69 8.34C216.19 7.43 216.8 6.41 218.15 3.41C218.22 3.24 218.05 2.97 218.15 2.76C218.19 2.66 218.39 2.46 218.52 2.49L222.48 4.42C221.26 7.12 219.27 9.79 217.51 12.19L220.04 11.98C220.62 11.07 221.63 10.06 222.1 9.15L224.06 10.36C226.26 8.51 228.25 5.67 229.5 2.73C229.53 2.63 229.43 2.36 229.47 2.29C229.53 2.16 229.67 2.09 229.8 2.12L232.67 3.07C232.84 3.1 232.91 3.3 232.84 3.44C232.57 4.08 232.27 4.76 231.97 5.43L238.45 5.43C238.48 5.43 238.52 5.43 238.55 5.43L238.89 5.37C239.02 5.33 239.19 5.37 239.33 5.43L240.81 6.34C241.08 6.48 241.19 6.82 241.05 7.09ZM213.32 26.91C213.26 26.61 213.42 26.3 213.73 26.24C216.26 25.53 220.21 24.28 223.76 23.06C223.96 22.99 224.2 23.13 224.23 23.33L224.47 24.55C224.5 26.51 223.39 26.74 222.54 27.18C220.89 27.99 217.75 29.28 215.32 30.22C215.18 30.29 215.05 30.46 214.88 30.63C214.71 30.83 214.37 30.76 214.3 30.49L213.32 26.91ZM223.93 17.59C223.79 17.32 223.69 17.05 223.56 16.88C225.99 16.27 228.32 15.36 230.41 14.18C229.53 13.3 228.72 12.39 228.01 11.41C227.44 12.12 226.8 12.76 226.16 13.37C225.99 13.54 225.72 13.47 225.62 13.3C225.38 12.9 225.04 12.39 224.7 11.88C223.29 14.15 221.66 16.41 219.94 18.4L223.93 17.59ZM238.99 19.45C236.9 18.64 234.9 17.66 233.22 16.48C231.43 17.69 229.53 18.67 227.58 19.45L238.99 19.45ZM236.56 26.95L236.56 22.66L229.67 22.66L229.67 26.95L236.56 26.95ZM230.04 8.67C230.85 9.99 231.86 11.24 233.08 12.32C234.4 11.24 235.51 10.03 236.42 8.67L230.04 8.67Z" fill="#FFFFFF" fill-opacity="1.000000" fill-rule="nonzero"/>
        <path id="路径 12" d="M235.88 14.28C237.67 15.33 239.7 16.07 241.9 16.61C242.13 16.68 242.27 16.92 242.13 17.15C241.76 17.93 241.42 19.01 241.22 19.82C241.15 20.02 240.95 20.16 240.75 20.09C240.51 20.02 240.27 19.92 240 19.85L240 30.97L236.49 30.97L236.49 30.19L229.6 30.19L229.6 30.97L226.29 30.97L226.29 19.92C225.58 20.19 224.81 19.82 224.57 19.11C224.43 18.74 224.3 18.33 224.13 18C224.06 18.54 224.06 19.14 224.1 19.69C224.13 20.33 223.69 20.87 223.08 21C217.51 22.29 215.86 22.76 215.01 23.2C214.81 23.3 214.61 23.2 214.54 22.99C214.3 22.25 213.9 21.07 213.59 20.29C213.53 20.16 213.56 19.99 213.69 19.89C214.47 19.21 215.08 18.67 215.99 17.66C216.43 17.22 217.92 15.26 218.93 13.88C217.41 14.82 214.94 15.6 214.17 15.83C214.03 15.87 213.9 15.8 213.86 15.67C213.63 14.86 213.12 13.34 212.71 12.49C213.22 11.75 214.84 9.79 215.69 8.34C216.19 7.43 216.8 6.41 218.15 3.41C218.22 3.24 218.05 2.97 218.15 2.76C218.19 2.66 218.39 2.46 218.52 2.49L222.48 4.42C221.26 7.12 219.27 9.79 217.51 12.19L220.04 11.98C220.62 11.07 221.63 10.06 222.1 9.15L224.06 10.36C226.26 8.51 228.25 5.67 229.5 2.73C229.53 2.63 229.43 2.36 229.47 2.29C229.53 2.16 229.67 2.09 229.8 2.12L232.67 3.07C232.84 3.1 232.91 3.3 232.84 3.44C232.57 4.08 232.27 4.76 231.97 5.43L238.45 5.43C238.48 5.43 238.52 5.43 238.55 5.43L238.89 5.37C239.02 5.33 239.19 5.37 239.33 5.43L240.81 6.34C241.08 6.48 241.19 6.82 241.05 7.09C239.83 9.89 238.04 12.29 235.88 14.28ZM213.73 26.24C216.26 25.53 220.21 24.28 223.76 23.06C223.96 22.99 224.2 23.13 224.23 23.33L224.47 24.55C224.5 26.51 223.39 26.74 222.54 27.18C220.89 27.99 217.75 29.28 215.32 30.22C215.18 30.29 215.05 30.46 214.88 30.63C214.71 30.83 214.37 30.76 214.3 30.49L213.32 26.91C213.26 26.61 213.42 26.3 213.73 26.24ZM223.56 16.88C225.99 16.27 228.32 15.36 230.41 14.18C229.53 13.3 228.72 12.39 228.01 11.41C227.44 12.12 226.8 12.76 226.16 13.37C225.99 13.54 225.72 13.47 225.62 13.3C225.38 12.9 225.04 12.39 224.7 11.88C223.29 14.15 221.66 16.41 219.94 18.4L223.93 17.59C223.79 17.32 223.69 17.05 223.56 16.88ZM233.22 16.48C231.43 17.69 229.53 18.67 227.58 19.45L238.99 19.45C236.9 18.64 234.9 17.66 233.22 16.48ZM236.56 22.66L229.67 22.66L229.67 26.95L236.56 26.95L236.56 22.66ZM233.08 12.32C234.4 11.24 235.51 10.03 236.42 8.67L230.04 8.67C230.85 9.99 231.86 11.24 233.08 12.32Z" stroke="#707070" stroke-opacity="0" stroke-width="1.000000"/>
    </g>
</svg>
